<svg xmlns="http://www.w3.org/2000/svg" width="574.345" height="119.142" viewBox="0 0 574.345 119.142">
  <g id="Grupo_8098" data-name="Grupo 8098" transform="translate(0 -275.536)">
    <path id="Caminho_7108" data-name="Caminho 7108" d="M431.156,321.16a3.208,3.208,0,0,1-3.077-2.264l-7.026-22.579a4.113,4.113,0,0,0-3.977-2.939h-.016a4.113,4.113,0,0,0-3.982,2.911L389.6,369.917a3.222,3.222,0,0,1-6.159-.065l-24.668-83.391a4.18,4.18,0,0,0-8.034.056L336.417,337.5a3.156,3.156,0,0,1-3.1,2.351h-.025a3.159,3.159,0,0,1-3.09-2.4l-2.231-8.465a4.18,4.18,0,0,0-8.161.35L309.166,390.6a3.665,3.665,0,0,1-3.705,3.118h-.025a3.667,3.667,0,0,1-3.691-3.167l-17.8-111.043a4.592,4.592,0,0,0-4.66-3.974h-.018a4.593,4.593,0,0,0-4.649,4.007L265.4,339.836a3.222,3.222,0,0,1-6.156.76L249.512,317.4a4.18,4.18,0,0,0-7.876.475l-17.982,63.3a3.155,3.155,0,0,1-3.1,2.341h-.037a3.157,3.157,0,0,1-3.081-2.415L197.522,304.14a4.18,4.18,0,0,0-7.959-.426L172.89,347.985a3.222,3.222,0,0,1-5.992.1l-11.733-28.351a4.18,4.18,0,0,0-7.578-.317,3.212,3.212,0,0,1-2.864,1.745H.012l-.012,0v.953l.012,0h144.71a4.165,4.165,0,0,0,3.716-2.265,3.222,3.222,0,0,1,5.841.245l11.733,28.351a4.1,4.1,0,0,0,3.857,2.582h.073a4.106,4.106,0,0,0,3.845-2.707l16.672-44.271a3.222,3.222,0,0,1,6.135.329l19.912,76.97a4.181,4.181,0,0,0,8.069.1l17.982-63.3a3.222,3.222,0,0,1,6.07-.366l9.73,23.191a4.181,4.181,0,0,0,7.988-.985l9.218-60.292a3.661,3.661,0,0,1,3.706-3.194h.014A3.66,3.66,0,0,1,283,279.661L300.8,390.7a4.6,4.6,0,0,0,4.631,3.973h.032a4.6,4.6,0,0,0,4.65-3.913L320.752,329.5a3.222,3.222,0,0,1,6.29-.269l2.23,8.465a4.088,4.088,0,0,0,4.009,3.115h.037a4.086,4.086,0,0,0,4.021-3.05l14.321-50.986a3.222,3.222,0,0,1,6.192-.043l24.668,83.391a4.18,4.18,0,0,0,7.992.084l23.48-73.629a3.168,3.168,0,0,1,3.068-2.243h.012a3.169,3.169,0,0,1,3.065,2.265l7.026,22.579a4.162,4.162,0,0,0,3.992,2.938H574.345v-.958Z" fill="#9c9c9c"/>
  </g>
</svg>
