<svg xmlns="http://www.w3.org/2000/svg" xmlns:xlink="http://www.w3.org/1999/xlink" width="183" height="183" viewBox="0 0 183 183">
  <defs>
    <clipPath id="clip-path">
      <circle id="Elipse_35" data-name="Elipse 35" cx="91.5" cy="91.5" r="91.5" fill="#f2f2f2" stroke="#646464" stroke-width="1"/>
    </clipPath>
  </defs>
  <g id="Vitoria" transform="translate(0 -2)">
    <g id="Caminho_11414" data-name="Caminho 11414" transform="translate(0 2)" fill="none">
      <path d="M91.5,0A91.5,91.5,0,1,1,0,91.5,91.5,91.5,0,0,1,91.5,0Z" stroke="none"/>
      <path d="M 91.5 1 C 85.35902404785156 1 79.22221374511719 1.618621826171875 73.26002502441406 2.838638305664062 C 67.44988250732422 4.027572631835938 61.73480987548828 5.8016357421875 56.27362060546875 8.111526489257812 C 50.91133117675781 10.37957763671875 45.73933410644531 13.18685913085938 40.90129089355469 16.45538330078125 C 36.10893249511719 19.69302368164062 31.60238647460938 23.4112548828125 27.5068359375 27.5068359375 C 23.4112548828125 31.60238647460938 19.69302368164062 36.10893249511719 16.45538330078125 40.90129089355469 C 13.18685913085938 45.73933410644531 10.37957763671875 50.91133117675781 8.111526489257812 56.27362060546875 C 5.8016357421875 61.73480987548828 4.027572631835938 67.44988250732422 2.838638305664062 73.26002502441406 C 1.618621826171875 79.22221374511719 1 85.35902404785156 1 91.5 C 1 97.64095306396484 1.618621826171875 103.7777633666992 2.838638305664062 109.7399520874023 C 4.027572631835938 115.5501174926758 5.8016357421875 121.2651672363281 8.111526489257812 126.7263793945312 C 10.37957763671875 132.0886688232422 13.18685913085938 137.2606658935547 16.45538330078125 142.0987091064453 C 19.69302368164062 146.8910522460938 23.4112548828125 151.3975982666016 27.5068359375 155.4931640625 C 31.60238647460938 159.5887145996094 36.10893249511719 163.3069763183594 40.90129089355469 166.5446166992188 C 45.73933410644531 169.8131408691406 50.91133117675781 172.6204223632812 56.27362060546875 174.8884735107422 C 61.73480987548828 177.1983642578125 67.44988250732422 178.972412109375 73.26002502441406 180.1613616943359 C 79.22221374511719 181.3813781738281 85.35902404785156 182 91.5 182 C 97.64095306396484 182 103.7777633666992 181.3813781738281 109.7399520874023 180.1613616943359 C 115.5501174926758 178.972412109375 121.2651672363281 177.1983642578125 126.7263793945312 174.8884735107422 C 132.0886688232422 172.6204223632812 137.2606658935547 169.8131408691406 142.0987091064453 166.5446166992188 C 146.8910522460938 163.3069763183594 151.3975982666016 159.5887145996094 155.4931640625 155.4931640625 C 159.5887145996094 151.3975982666016 163.3069763183594 146.8910522460938 166.5446166992188 142.0987091064453 C 169.8131408691406 137.2606658935547 172.6204223632812 132.0886688232422 174.8884735107422 126.7263793945312 C 177.1983642578125 121.2651672363281 178.972412109375 115.5501174926758 180.1613616943359 109.7399520874023 C 181.3813781738281 103.7777633666992 182 97.64095306396484 182 91.5 C 182 85.35902404785156 181.3813781738281 79.22221374511719 180.1613616943359 73.26002502441406 C 178.972412109375 67.44988250732422 177.1983642578125 61.73480987548828 174.8884735107422 56.27362060546875 C 172.6204223632812 50.91133117675781 169.8131408691406 45.73933410644531 166.5446166992188 40.90129089355469 C 163.3069763183594 36.10893249511719 159.5887145996094 31.60238647460938 155.4931640625 27.5068359375 C 151.3975982666016 23.4112548828125 146.8910522460938 19.69302368164062 142.0987091064453 16.45538330078125 C 137.2606658935547 13.18685913085938 132.0886688232422 10.37957763671875 126.7263793945312 8.111526489257812 C 121.2651672363281 5.8016357421875 115.5501174926758 4.027572631835938 109.7399520874023 2.838638305664062 C 103.7777633666992 1.618621826171875 97.64095306396484 1 91.5 1 M 91.5 0 C 142.0340423583984 0 183 40.96592712402344 183 91.5 C 183 142.0340423583984 142.0340423583984 183 91.5 183 C 40.96592712402344 183 0 142.0340423583984 0 91.5 C 0 40.96592712402344 40.96592712402344 0 91.5 0 Z" stroke="none" fill="#f6a842"/>
    </g>
    <g id="Grupo_de_máscara_5" data-name="Grupo de máscara 5" transform="translate(0 2)" clip-path="url(#clip-path)">
      <g id="trofeu" transform="translate(35.104 42.108)">
        <path id="Caminho_622" data-name="Caminho 622" d="M124.771,65.351l-9.709,49.993s35.094-9.663,39.761-34.682C158.581,60.534,143.5,60.937,124.771,65.351Zm24.267,14.23C146.5,93.2,132.5,101.758,122.855,106.122l6.961-35.867A58.572,58.572,0,0,1,141.5,68.771c2.452,0,5.661.324,6.945,1.866,1.2,1.442,1.413,4.617.6,8.944Z" transform="translate(-42.61 -48.793)" fill="#f6981c"/>
        <path id="Caminho_623" data-name="Caminho 623" d="M78.245,65.351c-18.723-4.414-33.81-4.817-30.053,15.311,4.667,25.02,39.761,34.682,39.761,34.682ZM53.978,79.581c-.831-4.326-.6-7.5.6-8.944,1.284-1.542,4.493-1.866,6.945-1.866A58.535,58.535,0,0,1,73.2,70.255l6.961,35.867C70.515,101.758,56.518,93.2,53.978,79.581Z" transform="translate(-47.615 -48.793)" fill="#f6981c"/>
        <path id="Caminho_624" data-name="Caminho 624" d="M96.008,109.824h8.827v40.16H96.008Z" transform="translate(-44.024 -45.309)" fill="#f6981c"/>
        <path id="Caminho_625" data-name="Caminho 625" d="M96.593,133.9h9.326a11.77,11.77,0,0,1,11.762,11.77v5.586H84.823v-5.586A11.77,11.77,0,0,1,96.593,133.9Z" transform="translate(-44.854 -43.523)" fill="#e8aa5a"/>
        <path id="Caminho_626" data-name="Caminho 626" d="M63.768,52.962c0,42.392,13.74,61.04,24.936,69.194a24.192,24.192,0,0,0,28.261,0C128.146,114,141.9,95.354,141.9,52.962Z" transform="translate(-46.416 -49.529)" fill="#e8aa5a"/>
        <path id="Caminho_627" data-name="Caminho 627" d="M85.636,143.813h32.858a11.77,11.77,0,0,1,11.77,11.758h-56.4A11.77,11.77,0,0,1,85.636,143.813Z" transform="translate(-45.667 -42.787)" fill="#f6981c"/>
        <path id="Caminho_628" data-name="Caminho 628" d="M62.656,49.766h80.919a2.942,2.942,0,0,1,2.943,2.942h0a2.943,2.943,0,0,1-2.943,2.942H62.656a2.943,2.943,0,0,1-2.942-2.942h0A2.942,2.942,0,0,1,62.656,49.766Z" transform="translate(-46.717 -49.766)" fill="#f6981c"/>
      </g>
    </g>
  </g>
</svg>
